<svg xmlns="http://www.w3.org/2000/svg" viewBox="0 0 64 64" shape-rendering="crispEdges">
  <rect width="64" height="64" fill="#6fb7e8"/>
  <rect x="4" y="4" width="56" height="56" fill="#9fd0ef"/>
  <rect x="4" y="4" width="56" height="4" fill="#ffffff"/>
  <rect x="4" y="4" width="4" height="56" fill="#ffffff"/>
  <rect x="56" y="8" width="4" height="52" fill="#565656"/>
  <rect x="8" y="56" width="52" height="4" fill="#565656"/>
  <rect x="14" y="22" width="10" height="6" fill="#5a5a5a"/>
  <rect x="24" y="18" width="18" height="6" fill="#777777"/>
  <rect x="42" y="22" width="8" height="6" fill="#4a4a4a"/>
  <rect x="28" y="28" width="6" height="6" fill="#8a5a28"/>
  <rect x="34" y="34" width="6" height="6" fill="#9c6b30"/>
  <rect x="40" y="40" width="6" height="6" fill="#8a5a28"/>
  <rect x="46" y="46" width="6" height="6" fill="#6f451e"/>
  <rect x="22" y="14" width="18" height="4" fill="#c6c6c6"/>
  <rect x="18" y="18" width="8" height="4" fill="#d8d8d8"/>
  <rect x="38" y="24" width="10" height="4" fill="#2f2f2f"/>
</svg>
